<mxfile host="Electron" agent="Mozilla/5.0 (Windows NT 10.0; Win64; x64) AppleWebKit/537.36 (KHTML, like Gecko) draw.io/26.0.4 Chrome/128.0.6613.186 Electron/32.2.5 Safari/537.36" version="26.0.4">
  <diagram name="Seite-1" id="IvZ07Cls8janpTt7PAAK">
    <mxGraphModel dx="1728" dy="1012" grid="1" gridSize="10" guides="1" tooltips="1" connect="1" arrows="1" fold="1" page="1" pageScale="1" pageWidth="827" pageHeight="1169" math="0" shadow="0">
      <root>
        <mxCell id="0" />
        <mxCell id="1" parent="0" />
        <mxCell id="-5ne209eoDvIgAR0qHDM-1" value="System" style="shape=umlLifeline;perimeter=lifelinePerimeter;whiteSpace=wrap;html=1;container=1;dropTarget=0;collapsible=0;recursiveResize=0;outlineConnect=0;portConstraint=eastwest;newEdgeStyle={&quot;curved&quot;:0,&quot;rounded&quot;:0};" vertex="1" parent="1">
          <mxGeometry x="210" y="430" width="100" height="610" as="geometry" />
        </mxCell>
        <mxCell id="-5ne209eoDvIgAR0qHDM-2" value="Sequence diagram:&amp;nbsp;" style="shape=umlFrame;whiteSpace=wrap;html=1;pointerEvents=0;width=150;height=30;" vertex="1" parent="1">
          <mxGeometry x="110" y="380" width="480" height="680" as="geometry" />
        </mxCell>
        <mxCell id="-5ne209eoDvIgAR0qHDM-3" value="" style="html=1;points=[[0,0,0,0,5],[0,1,0,0,-5],[1,0,0,0,5],[1,1,0,0,-5]];perimeter=orthogonalPerimeter;outlineConnect=0;targetShapes=umlLifeline;portConstraint=eastwest;newEdgeStyle={&quot;curved&quot;:0,&quot;rounded&quot;:0};" vertex="1" parent="1">
          <mxGeometry x="255" y="490" width="10" height="520" as="geometry" />
        </mxCell>
        <mxCell id="-5ne209eoDvIgAR0qHDM-7" value="" style="swimlane;startSize=0;" vertex="1" parent="1">
          <mxGeometry x="180" y="500" width="230" height="170" as="geometry" />
        </mxCell>
        <mxCell id="-5ne209eoDvIgAR0qHDM-4" value="" style="html=1;points=[[0,0,0,0,5],[0,1,0,0,-5],[1,0,0,0,5],[1,1,0,0,-5]];perimeter=orthogonalPerimeter;outlineConnect=0;targetShapes=umlLifeline;portConstraint=eastwest;newEdgeStyle={&quot;curved&quot;:0,&quot;rounded&quot;:0};" vertex="1" parent="-5ne209eoDvIgAR0qHDM-7">
          <mxGeometry x="80" y="45" width="10" height="15" as="geometry" />
        </mxCell>
        <mxCell id="-5ne209eoDvIgAR0qHDM-5" value="" style="edgeStyle=elbowEdgeStyle;fontSize=12;html=1;endArrow=blockThin;endFill=1;rounded=0;exitX=1;exitY=0;exitDx=0;exitDy=5;exitPerimeter=0;" edge="1" parent="-5ne209eoDvIgAR0qHDM-7" target="-5ne209eoDvIgAR0qHDM-4">
          <mxGeometry width="160" relative="1" as="geometry">
            <mxPoint x="85" y="20" as="sourcePoint" />
            <mxPoint x="109.99691275167783" y="85" as="targetPoint" />
            <Array as="points">
              <mxPoint x="100" y="35" />
            </Array>
          </mxGeometry>
        </mxCell>
        <mxCell id="-5ne209eoDvIgAR0qHDM-9" value="getContract(conditions)" style="edgeLabel;html=1;align=center;verticalAlign=middle;resizable=0;points=[];" vertex="1" connectable="0" parent="-5ne209eoDvIgAR0qHDM-5">
          <mxGeometry x="-0.096" relative="1" as="geometry">
            <mxPoint x="30" as="offset" />
          </mxGeometry>
        </mxCell>
        <mxCell id="-5ne209eoDvIgAR0qHDM-10" value="" style="html=1;points=[[0,0,0,0,5],[0,1,0,0,-5],[1,0,0,0,5],[1,1,0,0,-5]];perimeter=orthogonalPerimeter;outlineConnect=0;targetShapes=umlLifeline;portConstraint=eastwest;newEdgeStyle={&quot;curved&quot;:0,&quot;rounded&quot;:0};" vertex="1" parent="-5ne209eoDvIgAR0qHDM-7">
          <mxGeometry x="80" y="90" width="10" height="15" as="geometry" />
        </mxCell>
        <mxCell id="-5ne209eoDvIgAR0qHDM-11" value="" style="edgeStyle=elbowEdgeStyle;fontSize=12;html=1;endArrow=blockThin;endFill=1;rounded=0;exitX=1;exitY=0;exitDx=0;exitDy=5;exitPerimeter=0;" edge="1" parent="-5ne209eoDvIgAR0qHDM-7" target="-5ne209eoDvIgAR0qHDM-10">
          <mxGeometry width="160" relative="1" as="geometry">
            <mxPoint x="85" y="65" as="sourcePoint" />
            <mxPoint x="109.99691275167783" y="130" as="targetPoint" />
            <Array as="points">
              <mxPoint x="100" y="80" />
            </Array>
          </mxGeometry>
        </mxCell>
        <mxCell id="-5ne209eoDvIgAR0qHDM-12" value="sumTotalCost(contract)" style="edgeLabel;html=1;align=center;verticalAlign=middle;resizable=0;points=[];" vertex="1" connectable="0" parent="-5ne209eoDvIgAR0qHDM-11">
          <mxGeometry x="-0.096" relative="1" as="geometry">
            <mxPoint x="30" as="offset" />
          </mxGeometry>
        </mxCell>
        <mxCell id="-5ne209eoDvIgAR0qHDM-13" value="" style="html=1;points=[[0,0,0,0,5],[0,1,0,0,-5],[1,0,0,0,5],[1,1,0,0,-5]];perimeter=orthogonalPerimeter;outlineConnect=0;targetShapes=umlLifeline;portConstraint=eastwest;newEdgeStyle={&quot;curved&quot;:0,&quot;rounded&quot;:0};" vertex="1" parent="-5ne209eoDvIgAR0qHDM-7">
          <mxGeometry x="80" y="145" width="10" height="15" as="geometry" />
        </mxCell>
        <mxCell id="-5ne209eoDvIgAR0qHDM-14" value="" style="edgeStyle=elbowEdgeStyle;fontSize=12;html=1;endArrow=blockThin;endFill=1;rounded=0;exitX=1;exitY=0;exitDx=0;exitDy=5;exitPerimeter=0;" edge="1" parent="-5ne209eoDvIgAR0qHDM-7" target="-5ne209eoDvIgAR0qHDM-13">
          <mxGeometry width="160" relative="1" as="geometry">
            <mxPoint x="85" y="120" as="sourcePoint" />
            <mxPoint x="109.99691275167783" y="185" as="targetPoint" />
            <Array as="points">
              <mxPoint x="100" y="135" />
            </Array>
          </mxGeometry>
        </mxCell>
        <mxCell id="-5ne209eoDvIgAR0qHDM-15" value="createBill()" style="edgeLabel;html=1;align=center;verticalAlign=middle;resizable=0;points=[];" vertex="1" connectable="0" parent="-5ne209eoDvIgAR0qHDM-14">
          <mxGeometry x="-0.096" relative="1" as="geometry">
            <mxPoint x="30" as="offset" />
          </mxGeometry>
        </mxCell>
        <mxCell id="-5ne209eoDvIgAR0qHDM-8" value="&lt;font style=&quot;font-size: 8px;&quot;&gt;[condition&lt;br&gt;== quartal]&lt;/font&gt;" style="text;html=1;align=center;verticalAlign=middle;whiteSpace=wrap;rounded=0;" vertex="1" parent="1">
          <mxGeometry x="170" y="500" width="90" height="30" as="geometry" />
        </mxCell>
        <mxCell id="-5ne209eoDvIgAR0qHDM-16" value="" style="swimlane;startSize=0;" vertex="1" parent="1">
          <mxGeometry x="180" y="670" width="230" height="170" as="geometry" />
        </mxCell>
        <mxCell id="-5ne209eoDvIgAR0qHDM-17" value="" style="html=1;points=[[0,0,0,0,5],[0,1,0,0,-5],[1,0,0,0,5],[1,1,0,0,-5]];perimeter=orthogonalPerimeter;outlineConnect=0;targetShapes=umlLifeline;portConstraint=eastwest;newEdgeStyle={&quot;curved&quot;:0,&quot;rounded&quot;:0};" vertex="1" parent="-5ne209eoDvIgAR0qHDM-16">
          <mxGeometry x="80" y="45" width="10" height="15" as="geometry" />
        </mxCell>
        <mxCell id="-5ne209eoDvIgAR0qHDM-18" value="" style="edgeStyle=elbowEdgeStyle;fontSize=12;html=1;endArrow=blockThin;endFill=1;rounded=0;exitX=1;exitY=0;exitDx=0;exitDy=5;exitPerimeter=0;" edge="1" parent="-5ne209eoDvIgAR0qHDM-16" target="-5ne209eoDvIgAR0qHDM-17">
          <mxGeometry width="160" relative="1" as="geometry">
            <mxPoint x="85" y="20" as="sourcePoint" />
            <mxPoint x="109.99691275167783" y="85" as="targetPoint" />
            <Array as="points">
              <mxPoint x="100" y="35" />
            </Array>
          </mxGeometry>
        </mxCell>
        <mxCell id="-5ne209eoDvIgAR0qHDM-19" value="getContract(conditions)" style="edgeLabel;html=1;align=center;verticalAlign=middle;resizable=0;points=[];" vertex="1" connectable="0" parent="-5ne209eoDvIgAR0qHDM-18">
          <mxGeometry x="-0.096" relative="1" as="geometry">
            <mxPoint x="30" as="offset" />
          </mxGeometry>
        </mxCell>
        <mxCell id="-5ne209eoDvIgAR0qHDM-20" value="" style="html=1;points=[[0,0,0,0,5],[0,1,0,0,-5],[1,0,0,0,5],[1,1,0,0,-5]];perimeter=orthogonalPerimeter;outlineConnect=0;targetShapes=umlLifeline;portConstraint=eastwest;newEdgeStyle={&quot;curved&quot;:0,&quot;rounded&quot;:0};" vertex="1" parent="-5ne209eoDvIgAR0qHDM-16">
          <mxGeometry x="80" y="90" width="10" height="15" as="geometry" />
        </mxCell>
        <mxCell id="-5ne209eoDvIgAR0qHDM-21" value="" style="edgeStyle=elbowEdgeStyle;fontSize=12;html=1;endArrow=blockThin;endFill=1;rounded=0;exitX=1;exitY=0;exitDx=0;exitDy=5;exitPerimeter=0;" edge="1" parent="-5ne209eoDvIgAR0qHDM-16" target="-5ne209eoDvIgAR0qHDM-20">
          <mxGeometry width="160" relative="1" as="geometry">
            <mxPoint x="85" y="65" as="sourcePoint" />
            <mxPoint x="109.99691275167783" y="130" as="targetPoint" />
            <Array as="points">
              <mxPoint x="100" y="80" />
            </Array>
          </mxGeometry>
        </mxCell>
        <mxCell id="-5ne209eoDvIgAR0qHDM-22" value="sumTotalCost(contract)" style="edgeLabel;html=1;align=center;verticalAlign=middle;resizable=0;points=[];" vertex="1" connectable="0" parent="-5ne209eoDvIgAR0qHDM-21">
          <mxGeometry x="-0.096" relative="1" as="geometry">
            <mxPoint x="30" as="offset" />
          </mxGeometry>
        </mxCell>
        <mxCell id="-5ne209eoDvIgAR0qHDM-23" value="" style="html=1;points=[[0,0,0,0,5],[0,1,0,0,-5],[1,0,0,0,5],[1,1,0,0,-5]];perimeter=orthogonalPerimeter;outlineConnect=0;targetShapes=umlLifeline;portConstraint=eastwest;newEdgeStyle={&quot;curved&quot;:0,&quot;rounded&quot;:0};" vertex="1" parent="-5ne209eoDvIgAR0qHDM-16">
          <mxGeometry x="80" y="145" width="10" height="15" as="geometry" />
        </mxCell>
        <mxCell id="-5ne209eoDvIgAR0qHDM-24" value="" style="edgeStyle=elbowEdgeStyle;fontSize=12;html=1;endArrow=blockThin;endFill=1;rounded=0;exitX=1;exitY=0;exitDx=0;exitDy=5;exitPerimeter=0;" edge="1" parent="-5ne209eoDvIgAR0qHDM-16" target="-5ne209eoDvIgAR0qHDM-23">
          <mxGeometry width="160" relative="1" as="geometry">
            <mxPoint x="85" y="120" as="sourcePoint" />
            <mxPoint x="109.99691275167783" y="185" as="targetPoint" />
            <Array as="points">
              <mxPoint x="100" y="135" />
            </Array>
          </mxGeometry>
        </mxCell>
        <mxCell id="-5ne209eoDvIgAR0qHDM-25" value="createBill()" style="edgeLabel;html=1;align=center;verticalAlign=middle;resizable=0;points=[];" vertex="1" connectable="0" parent="-5ne209eoDvIgAR0qHDM-24">
          <mxGeometry x="-0.096" relative="1" as="geometry">
            <mxPoint x="30" as="offset" />
          </mxGeometry>
        </mxCell>
        <mxCell id="-5ne209eoDvIgAR0qHDM-26" value="&lt;font style=&quot;font-size: 8px;&quot;&gt;[condition&lt;br&gt;== monthly]&lt;/font&gt;" style="text;html=1;align=center;verticalAlign=middle;whiteSpace=wrap;rounded=0;" vertex="1" parent="1">
          <mxGeometry x="170" y="670" width="90" height="30" as="geometry" />
        </mxCell>
        <mxCell id="-5ne209eoDvIgAR0qHDM-27" value="" style="swimlane;startSize=0;" vertex="1" parent="1">
          <mxGeometry x="180" y="840" width="230" height="110" as="geometry" />
        </mxCell>
        <mxCell id="-5ne209eoDvIgAR0qHDM-28" value="" style="html=1;points=[[0,0,0,0,5],[0,1,0,0,-5],[1,0,0,0,5],[1,1,0,0,-5]];perimeter=orthogonalPerimeter;outlineConnect=0;targetShapes=umlLifeline;portConstraint=eastwest;newEdgeStyle={&quot;curved&quot;:0,&quot;rounded&quot;:0};" vertex="1" parent="-5ne209eoDvIgAR0qHDM-27">
          <mxGeometry x="80" y="45" width="10" height="15" as="geometry" />
        </mxCell>
        <mxCell id="-5ne209eoDvIgAR0qHDM-29" value="" style="edgeStyle=elbowEdgeStyle;fontSize=12;html=1;endArrow=blockThin;endFill=1;rounded=0;exitX=1;exitY=0;exitDx=0;exitDy=5;exitPerimeter=0;" edge="1" parent="-5ne209eoDvIgAR0qHDM-27" target="-5ne209eoDvIgAR0qHDM-28">
          <mxGeometry width="160" relative="1" as="geometry">
            <mxPoint x="85" y="20" as="sourcePoint" />
            <mxPoint x="109.99691275167783" y="85" as="targetPoint" />
            <Array as="points">
              <mxPoint x="100" y="35" />
            </Array>
          </mxGeometry>
        </mxCell>
        <mxCell id="-5ne209eoDvIgAR0qHDM-30" value="getContract(conditions)" style="edgeLabel;html=1;align=center;verticalAlign=middle;resizable=0;points=[];" vertex="1" connectable="0" parent="-5ne209eoDvIgAR0qHDM-29">
          <mxGeometry x="-0.096" relative="1" as="geometry">
            <mxPoint x="30" as="offset" />
          </mxGeometry>
        </mxCell>
        <mxCell id="-5ne209eoDvIgAR0qHDM-34" value="" style="html=1;points=[[0,0,0,0,5],[0,1,0,0,-5],[1,0,0,0,5],[1,1,0,0,-5]];perimeter=orthogonalPerimeter;outlineConnect=0;targetShapes=umlLifeline;portConstraint=eastwest;newEdgeStyle={&quot;curved&quot;:0,&quot;rounded&quot;:0};" vertex="1" parent="-5ne209eoDvIgAR0qHDM-27">
          <mxGeometry x="80" y="90" width="10" height="15" as="geometry" />
        </mxCell>
        <mxCell id="-5ne209eoDvIgAR0qHDM-35" value="" style="edgeStyle=elbowEdgeStyle;fontSize=12;html=1;endArrow=blockThin;endFill=1;rounded=0;exitX=1;exitY=0;exitDx=0;exitDy=5;exitPerimeter=0;" edge="1" parent="-5ne209eoDvIgAR0qHDM-27" target="-5ne209eoDvIgAR0qHDM-34">
          <mxGeometry width="160" relative="1" as="geometry">
            <mxPoint x="85" y="65" as="sourcePoint" />
            <mxPoint x="109.99691275167783" y="130" as="targetPoint" />
            <Array as="points">
              <mxPoint x="100" y="80" />
            </Array>
          </mxGeometry>
        </mxCell>
        <mxCell id="-5ne209eoDvIgAR0qHDM-36" value="createBill()" style="edgeLabel;html=1;align=center;verticalAlign=middle;resizable=0;points=[];" vertex="1" connectable="0" parent="-5ne209eoDvIgAR0qHDM-35">
          <mxGeometry x="-0.096" relative="1" as="geometry">
            <mxPoint x="30" as="offset" />
          </mxGeometry>
        </mxCell>
        <mxCell id="-5ne209eoDvIgAR0qHDM-37" value="&lt;font style=&quot;font-size: 8px;&quot;&gt;[condition&lt;br&gt;== quartal]&lt;/font&gt;" style="text;html=1;align=center;verticalAlign=middle;whiteSpace=wrap;rounded=0;" vertex="1" parent="1">
          <mxGeometry x="170" y="840" width="90" height="30" as="geometry" />
        </mxCell>
        <mxCell id="-5ne209eoDvIgAR0qHDM-38" value=":Object" style="shape=umlLifeline;perimeter=lifelinePerimeter;whiteSpace=wrap;html=1;container=1;dropTarget=0;collapsible=0;recursiveResize=0;outlineConnect=0;portConstraint=eastwest;newEdgeStyle={&quot;curved&quot;:0,&quot;rounded&quot;:0};" vertex="1" parent="1">
          <mxGeometry x="470" y="900" width="100" height="140" as="geometry" />
        </mxCell>
        <mxCell id="-5ne209eoDvIgAR0qHDM-39" value="" style="html=1;points=[[0,0,0,0,5],[0,1,0,0,-5],[1,0,0,0,5],[1,1,0,0,-5]];perimeter=orthogonalPerimeter;outlineConnect=0;targetShapes=umlLifeline;portConstraint=eastwest;newEdgeStyle={&quot;curved&quot;:0,&quot;rounded&quot;:0};" vertex="1" parent="-5ne209eoDvIgAR0qHDM-38">
          <mxGeometry x="45" y="50" width="10" height="80" as="geometry" />
        </mxCell>
        <mxCell id="-5ne209eoDvIgAR0qHDM-40" value="" style="edgeStyle=elbowEdgeStyle;fontSize=12;html=1;endArrow=blockThin;endFill=1;rounded=0;exitX=1;exitY=1;exitDx=0;exitDy=-5;exitPerimeter=0;entryX=0.129;entryY=0.695;entryDx=0;entryDy=0;entryPerimeter=0;" edge="1" parent="1" source="-5ne209eoDvIgAR0qHDM-3" target="-5ne209eoDvIgAR0qHDM-39">
          <mxGeometry width="160" relative="1" as="geometry">
            <mxPoint x="270" y="1010" as="sourcePoint" />
            <mxPoint x="430" y="1010" as="targetPoint" />
          </mxGeometry>
        </mxCell>
        <mxCell id="-5ne209eoDvIgAR0qHDM-41" value="sendBill(contract)" style="edgeLabel;html=1;align=center;verticalAlign=middle;resizable=0;points=[];" vertex="1" connectable="0" parent="-5ne209eoDvIgAR0qHDM-40">
          <mxGeometry x="-0.0182" relative="1" as="geometry">
            <mxPoint as="offset" />
          </mxGeometry>
        </mxCell>
      </root>
    </mxGraphModel>
  </diagram>
</mxfile>
